<?xml version="1.0" encoding="UTF-8"?>
<svg width="121px" height="21px" viewBox="0 0 121 21" version="1.1" xmlns="http://www.w3.org/2000/svg" xmlns:xlink="http://www.w3.org/1999/xlink">
    <!-- Generator: Sketch 47 (45396) - http://www.bohemiancoding.com/sketch -->
    <title>bankLogo/h28/278</title>
    <desc>Created with Sketch.</desc>
    <defs>
        <radialGradient cx="55.9383631%" cy="38.9863856%" fx="55.9383631%" fy="38.9863856%" r="37.0835248%" gradientTransform="translate(0.559384,0.389864),rotate(90.000000),scale(1.000000,1.033940),translate(-0.559384,-0.389864)" id="radialGradient-1">
            <stop stop-color="#00A5DF" offset="0%"></stop>
            <stop stop-color="#006AB6" offset="100%"></stop>
        </radialGradient>
        <radialGradient cx="56.4848615%" cy="40.994224%" fx="56.4848615%" fy="40.994224%" r="65.9561139%" gradientTransform="translate(0.564849,0.409942),scale(1.000000,0.909091),rotate(105.266688),translate(-0.564849,-0.409942)" id="radialGradient-2">
            <stop stop-color="#FAF7F2" offset="0%"></stop>
            <stop stop-color="#CF9B51" offset="100%"></stop>
        </radialGradient>
    </defs>
    <g id="Page-1" stroke="none" stroke-width="1" fill="none" fill-rule="evenodd">
        <g id="가로형" transform="translate(-311.000000, -60.000000)">
            <g id="bankLogo/h28/278" transform="translate(309.000000, 56.000000)">
                <g id="Group-9" transform="translate(0.000000, 2.000000)">
                    <g id="Group-Copy-2" transform="translate(0.610221, 0.599826)">
                        <g id="logo/shinhan-copy-2" transform="translate(0.085938, 0.000000)">
                            <g id="shinhan_logo" transform="translate(0.745473, 0.745473)">
                                <circle id="Oval-2" fill="url(#radialGradient-1)" cx="10.9680184" cy="11.1396406" r="10.3345974"></circle>
                                <path d="M10.3635908,18.7010378 C10.3635908,18.7010378 10.9348311,19.1061869 10.2877482,19.2166821 C10.2877482,19.2166821 3.92890732,19.8056777 3.58616312,13.1035506 C3.58616312,13.1035506 3.58616312,12.8092089 3.81465925,12.7717529 C3.81465925,12.7717529 4.0050727,12.6984016 4.15740345,12.9930554 C4.15740345,12.9930554 4.53823034,14.024344 5.14723063,14.83433 C5.14723063,14.83433 5.41380945,15.0921521 5.64230558,14.7606665 C5.64230558,14.7606665 6.13738054,13.9875122 6.48012474,13.8401853 C6.48012474,13.8401853 7.01295965,13.3938346 7.01295965,14.0976953 C7.01295965,14.2085026 6.97487696,15.2763108 7.1652904,16.1234407 C7.1652904,16.1234407 8.38361371,15.7551233 9.48801169,15.7919551 C9.48801169,15.7919551 10.6301696,15.8659307 8.49786178,17.449071 C8.49786178,17.449071 7.69812531,17.8904275 10.3635908,18.7010378 Z M10.4778389,3.68164436 C8.49818452,3.7549957 8.00310956,4.85994772 8.00310956,4.85994772 C6.8225462,6.59072708 9.75459052,8.98416553 9.75459052,8.98416553 C11.5060715,10.4574349 13.7903873,12.4088925 13.7903873,12.4088925 C17.2430026,15.1403714 16.3035221,16.8649081 16.3035221,16.8649081 C15.4979764,19.3838241 12.3435679,19.2586586 12.3435679,19.2586586 C11.9630637,19.2586586 11.8868984,19.0008365 11.8868984,19.0008365 C11.8488157,18.7798461 12.0008237,18.7798461 12.0008237,18.7798461 C13.7529501,18.3709514 13.9427181,17.564711 13.9427181,17.564711 C14.1518501,16.2010005 11.7723276,14.3978062 11.7723276,14.3978062 C10.5540042,13.5138445 8.30744834,11.4147478 8.30744834,11.4147478 C4.9280938,8.77534832 5.48997483,6.40656841 5.48997483,6.40656841 C6.17514049,2.42936541 10.4016735,3.05550489 10.4016735,3.05550489 C10.7702365,3.12542275 10.7444177,3.38699049 10.7444177,3.38699049 C10.7524861,3.7343949 10.4778389,3.68164436 10.4778389,3.68164436 Z M13.1191076,3.85631418 C13.8026596,4.30859539 14.9532086,4.20371859 14.9532086,4.20371859 C16.7340584,4.16907179 17.4531112,4.60418566 17.4531112,4.60418566 C18.3164264,5.0736342 17.8846074,5.59520901 17.8846074,5.59520901 C17.5970509,5.89111142 16.931572,5.52591541 16.931572,5.52591541 C16.4281059,5.26497194 16.2121965,5.56056221 16.2121965,5.56056221 C15.9246399,6.01315555 16.6617658,6.22134849 16.6617658,6.22134849 C17.7048442,6.48260409 17.9565773,6.72575597 17.9565773,6.72575597 C18.8198924,7.57819211 17.9927235,8.37818986 17.9927235,8.37818986 C17.4531112,9.03897614 16.6081919,8.86543 16.6081919,8.86543 C15.8165238,8.743698 15.5647907,7.83913558 15.5647907,7.83913558 C15.4031007,7.28260184 15.2230148,7.05630517 15.2230148,7.05630517 C14.917385,6.6736297 14.4858888,6.86527957 14.4858888,6.86527957 C13.7845864,7.07378464 14.5039619,8.32606359 14.5039619,8.32606359 C15.3308081,9.64763615 14.323876,10.1870026 14.323876,10.1870026 C12.8134778,10.813142 12.2561151,9.52621628 12.2561151,9.52621628 C11.6987524,7.96086759 12.741508,6.39551889 12.741508,6.39551889 C13.3169439,5.71725315 12.8673745,4.84764966 12.8673745,4.84764966 C12.5975684,4.48214152 12.4720246,4.34324219 12.4720246,4.34324219 C12.2199688,3.97773405 12.4894523,3.78670845 12.4894523,3.78670845 C12.7773316,3.57789124 13.1191076,3.85631418 13.1191076,3.85631418 Z" id="Combined-Shape" fill="url(#radialGradient-2)"></path>
                            </g>
                        </g>
                    </g>
                    <g id="Group-7" transform="translate(26.568374, 4.910191)" fill="#7E8083">
                        <path d="M5.20558945,5.06018699 C6.5817675,6.75468286 8.45488394,7.73682931 10.1504462,7.63072337 L10.3343987,7.62165904 L10.3343987,6.59739014 L10.1632429,6.57339633 C7.8049184,6.28280469 6.43567189,4.36170064 6.40581293,1.29315949 L6.40474654,1.09321111 L3.25142727,1.09321111 C3.11066361,1.09321111 2.74222539,1.08841235 2.74222539,1.38326956 C2.74222539,1.48351035 2.78168188,1.71011851 3.14745411,1.71011851 C3.31061199,1.71011851 3.45564122,1.72664758 3.56387994,1.75757293 C3.6923801,1.78636549 3.82407943,1.84928259 3.85820396,2.25024574 C3.84327448,4.63416363 2.36738883,6.41876958 0.272462994,6.57339633 L0.0927760487,6.58406025 L0.0927760487,7.63072337 L0.28525969,7.63072337 C1.80220141,7.63072337 3.7169071,7.33000101 5.20558945,5.06018699" id="Fill-6"></path>
                        <path d="M6.12929765,13.3400761 C5.21380066,13.3400761 4.7888437,12.8612664 4.7888437,11.8337983 L4.7888437,9.02598983 L1.84933591,9.02598983 C1.70963864,9.02598983 1.34173362,9.01905829 1.34173362,9.31871426 C1.34173362,9.41948825 1.3801237,9.64503002 1.74429636,9.64503002 C1.90852063,9.64503002 2.05195026,9.6594263 2.16392136,9.68661928 C2.29775347,9.71967742 2.43371837,9.78845966 2.46197774,10.236344 L2.46197774,11.2200901 C2.46197774,11.5602689 2.53822473,14.5520299 5.21380066,14.5520299 L13.9043571,14.5520299 L13.9043571,13.3400761 L6.12929765,13.3400761 Z" id="Fill-8"></path>
                        <path d="M10.9139824,0.977880882 C10.7742852,0.977880882 10.4037142,0.970949338 10.4037142,1.27327129 C10.4037142,1.36924651 10.444237,1.59425509 10.8094761,1.59425509 C10.9710344,1.59425509 11.1176632,1.61185055 11.2253687,1.6422427 C11.3517361,1.67210166 11.4765039,1.7291536 11.5175599,2.09599223 L11.5175599,9.83159519 L13.8428263,9.83159519 L13.8428263,0.977880882 L10.9139824,0.977880882 Z" id="Fill-10"></path>
                        <path d="M21.3222287,7.1114441 C20.1113413,7.1114441 19.1265289,6.18954876 19.1265289,5.05330876 C19.1265289,3.91706876 20.1113413,2.99037467 21.3222287,2.99037467 C22.5336493,2.99037467 23.516329,3.91706876 23.516329,5.05330876 C23.516329,6.18954876 22.5336493,7.1114441 21.3222287,7.1114441 M16.8428518,5.14501842 C16.8428518,6.925892 18.8482008,8.3708523 21.309432,8.3708523 C23.7727961,8.3708523 25.7765455,6.925892 25.7765455,5.14501842 C25.7765455,4.21405876 25.2204224,3.36734401 24.333718,2.77762959 L26.2526892,2.77762959 L26.2526892,1.57633972 L22.6018984,1.57633972 L22.6018984,0.259879576 L19.6591914,0.259879576 C19.5194941,0.259879576 19.1499895,0.252414836 19.1499895,0.553137201 C19.1499895,0.652311598 19.192112,0.879452959 19.5546851,0.879452959 C19.7194425,0.879452959 19.8618058,0.892782851 19.9721773,0.923175005 C20.1033434,0.956233137 20.2366423,1.01861703 20.2691673,1.44464038 L20.2691673,1.57633972 L15.9572138,1.57633972 L16.6658308,2.77762959 L18.2888785,2.77762959 C17.4011077,3.36734401 16.8428518,4.21405876 16.8428518,5.14501842" id="Fill-12"></path>
                        <path d="M22.2834739,13.3465811 C21.0784517,13.3465811 20.9451528,12.8635058 20.9451528,11.8371041 L20.9451528,9.03142843 L18.0061782,9.03142843 C17.8664809,9.03142843 17.4985759,9.03089523 17.4985759,9.32681884 C17.4985759,9.42546004 17.5380323,9.6526014 17.902205,9.6526014 C18.0653629,9.6526014 18.2109253,9.66699768 18.3212968,9.69845623 C18.4535293,9.72831519 18.5878946,9.79496465 18.6177536,10.2295191 L18.6177536,11.2201967 C18.6177536,13.3993675 19.5695079,14.5521365 21.3706429,14.5521365 L30.0787948,14.5521365 L30.0787948,13.3465811 L22.2834739,13.3465811 Z" id="Fill-14"></path>
                        <path d="M32.0783319,4.55354445 L32.0783319,3.34212386 L30.1300349,3.34212386 L30.1300349,0.977934201 L27.2022574,0.977934201 C27.0652261,0.977934201 26.6946551,0.971002657 26.6946551,1.27332461 C26.6946551,1.37036622 26.7346448,1.59430841 27.0972179,1.59430841 C27.2641081,1.59430841 27.4075377,1.61190387 27.5147101,1.64282922 C27.6266812,1.66682302 27.7381191,1.7196094 27.7909054,1.98887322 L27.7909054,9.8321817 L30.1300349,9.8321817 L30.1300349,4.55354445 L32.0783319,4.55354445 Z" id="Fill-16"></path>
                        <polygon id="Fill-18" points="65.018788 8.88810543 65.7258054 10.05847 71.6704041 10.05847 71.6704041 14.5575751 74.073517 14.5575751 74.073517 10.05847 79.6256837 10.05847 79.6256837 8.88810543"></polygon>
                        <path d="M65.8362836,1.89721688 C65.9946427,1.89721688 66.1380723,1.91374594 66.2468442,1.94253851 C66.3806764,1.97293066 66.5150417,2.04064652 66.5422347,2.48266574 L66.5422347,4.57332601 C66.5422347,5.08146149 66.6734008,7.62213892 69.2562007,7.62213892 L79.0462066,7.62213892 L79.0462066,6.42564781 L70.156235,6.42564781 C68.9384161,6.42564781 68.8376421,5.78048103 68.8376421,5.17690352 L68.8376421,5.02387636 L78.8100009,5.02387636 L78.8100009,3.84338112 L68.8376421,3.84338112 L68.8376421,2.47306821 L79.0462066,2.47306821 L79.0462066,1.29203978 L65.9370576,1.29203978 C65.7893624,1.29203978 65.4374532,1.28777421 65.4374532,1.57676627 C65.4374532,1.67434108 65.4747769,1.89721688 65.8362836,1.89721688" id="Fill-20"></path>
                        <path d="M86.7308894,2.64075826 L89.2987598,2.64075826 L89.2987598,1.33549523 L80.8460086,1.33549523 L81.5343643,2.64075826 C81.5343643,2.64075826 84.214739,2.63915867 84.2168717,2.64075826 C84.361901,7.88313821 83.269383,10.8082497 80.7793592,11.9727491 L80.6668549,12.0271351 L80.6668549,12.1535024 L80.6668549,12.8215966 L80.6668549,13.0476716 L80.8918635,13.0151467 C82.1901949,12.8301277 83.8761597,12.1535024 85.536531,8.60561836 C86.5538684,10.8055837 88.3928603,13.0220782 90.2707755,13.0210118 L90.4675247,13.0204786 L90.4675247,12.8215966 L90.4675247,12.1535024 L90.4675247,12.0143384 L90.337425,11.9679503 C87.8180754,11.0519201 86.3779138,7.35367489 86.7308894,2.64075826" id="Fill-22"></path>
                        <path d="M95.7004138,4.65639789 L93.728123,4.65639789 L93.728123,0.977880882 L90.7998123,0.977880882 C90.660115,0.977880882 90.2911436,0.975214903 90.2911436,1.27273809 C90.2911436,1.37244569 90.3268677,1.60065344 90.6942395,1.60065344 C90.858997,1.60065344 91.0024266,1.6171825 91.1127981,1.64704146 C91.2359663,1.67316805 91.3639333,1.73075319 91.4023234,2.0991914 L91.4023234,14.5573085 L93.728123,14.5573085 L93.728123,5.90994094 L95.7004138,5.90994094 L95.7004138,4.65639789 Z" id="Fill-24"></path>
                        <path d="M56.7230096,1.67252822 C58.80034,1.67252822 60.3668689,2.28570325 60.3668689,3.09935986 C60.3668689,3.898087 58.7662155,4.5277911 56.7230096,4.5277911 C54.6808701,4.5277911 53.0823495,3.898087 53.0823495,3.09935986 C53.0823495,2.28570325 54.6467456,1.67252822 56.7230096,1.67252822 M56.7043478,5.75893993 C60.1040034,5.75893993 62.7689154,4.59284097 62.7689154,3.10149265 C62.7689154,1.61121071 60.1040034,0.441912582 56.7043478,0.441912582 C53.3014929,0.441912582 50.6360477,1.61121071 50.6360477,3.10149265 C50.6360477,4.59284097 53.3014929,5.75893993 56.7043478,5.75893993" id="Fill-26"></path>
                        <path d="M56.7089332,8.59911337 C56.1880011,8.59911337 55.6862639,8.63110511 55.201589,8.68869024 L55.201589,7.46340657 L58.4050287,7.46340657 L58.4050287,8.71108446 C57.8675675,8.63856985 57.2997141,8.59911337 56.7089332,8.59911337 L56.7089332,8.59911337 Z M56.7249291,13.6820678 C54.5068351,13.6820678 52.8342002,12.8566809 52.8342002,11.761497 C52.8342002,10.6647134 54.5068351,9.84145931 56.7249291,9.84145931 C58.9440895,9.84145931 60.6177908,10.6647134 60.6177908,11.761497 C60.6177908,12.8566809 58.9440895,13.6820678 56.7249291,13.6820678 L56.7249291,13.6820678 Z M48.9978573,6.27757937 L49.7155387,7.46340657 L53.005356,7.46340657 L53.005356,9.19309336 C51.4350947,9.76467913 50.4278881,10.6993712 50.4278881,11.7721609 C50.4278881,13.5535677 53.1887753,14.9452084 56.7089332,14.9452084 C60.2344231,14.9452084 62.9947771,13.5535677 62.9947771,11.7721609 C62.9947771,10.7404272 62.0664835,9.83985972 60.5980625,9.26294199 L60.5980625,7.46340657 L63.7999026,7.46340657 L63.7999026,6.27757937 L48.9978573,6.27757937 Z" id="Fill-28"></path>
                        <path d="M43.9752606,13.2676681 L38.4705484,13.2676681 C37.2170053,13.2676681 37.1359596,13.07945 37.1359596,11.7629899 L37.1359596,9.69952262 L43.9752606,9.69952262 L43.9752606,13.2676681 Z M34.2023169,8.47210616 C34.0658188,8.47210616 33.6925819,8.47210616 33.6925819,8.77229533 C33.6925819,8.86880374 33.7352375,9.09541191 34.0994102,9.09541191 C34.2620348,9.09541191 34.4086637,9.11300737 34.5174356,9.14339952 C34.6464689,9.17219209 34.7781683,9.23617557 34.8112264,9.64673625 L34.8112264,11.5033236 C34.8112264,13.0623878 35.1359426,14.4630928 37.5582506,14.4630928 L46.3031929,14.4630928 L46.3031929,8.47743811 L34.2023169,8.47210616 Z" id="Fill-30"></path>
                        <path d="M45.9247306,6.00730248 L46.2659759,3.23308534 C46.2659759,2.58525259 46.097486,2.08884741 45.7653051,1.76199845 C45.2422402,1.24053307 44.4104549,1.24533184 43.8068774,1.2501306 L34.1475044,1.2501306 L34.8555883,2.46155119 L43.5264165,2.46155119 C43.8191409,2.46155119 43.9295124,2.46155119 43.9295124,2.96488791 L43.5882672,6.00730248 L32.8758327,6.00730248 L33.5615224,7.26724387 L47.6688137,7.26724387 L47.6688137,6.00730248 L45.9247306,6.00730248 Z" id="Fill-32"></path>
                    </g>
                </g>
            </g>
        </g>
    </g>
</svg>